# Alias OBJ Model File
# Exported from SketchUp, (c) 2000-2012 Trimble Navigation Limited
# File units = millimeters

mtllib plate_with_pegs.mtl

g Mesh1 Group1 Model

usemtl FrontColor
v 175.066 3.00001 -84.0475
vt -5.28939e-007 0.600452
vn 0.866026 -1.93504e-007 -0.5
v 175.066 1.68418e-005 -84.0475
vt 0.118109 0.600452
v 139.066 -6.2159e-006 -146.401
vt 0.118108 3.4351
v 139.066 2.99997 -146.401
vt -1.25668e-006 3.4351
f 1/1/1 2/2/1 3/3/1 4/4/1 

v 103.066 3.87973e-006 -84.0475
vt -0.118109 1.36688
vn -1.69826e-007 7.25166e-007 1
vt -0.118109 -1.46776
vt 5.18363e-007 -1.46776
v 172.757 3.00001 -84.0475
vt 5.17998e-007 -1.37684
v 172.757 2.00001 -84.0475
vt -0.0393696 -1.37684
v 105.376 1.99999 -84.0475
vt -0.0393695 1.27596
v 105.376 2.99999 -84.0475
vt 5.42657e-007 1.27596
v 103.066 2.99999 -84.0475
vt 5.44712e-007 1.36688
f 5/5/2 2/6/2 1/7/2 6/8/2 7/9/2 8/10/2 9/11/2 10/12/2 

vt 3.98678 -0.270497
vn -1.80028e-007 1 -2.65848e-007
vt 1.61372 1.27992
vt 1.45755 -1.55042
f 3/13/3 5/14/3 2/15/3

vt 0.118109 -0.650891
vn -0.866025 -5.38908e-007 -0.5
vt -5.56422e-007 -0.650891
vt -1.25668e-006 -3.48554
vt 0.118108 -3.48554
f 5/16/4 10/17/4 4/18/4 3/19/4 

vn -1.89724e-007 1 -4.4155e-007
vt 1.60871 1.18914
v 139.066 2.99997 -142.401
vt 3.82954 -0.261821
vt 1.46256 -1.45964
f 4/13/5 10/14/5 9/20/5 11/21/5 6/22/5 1/15/5 

vt 2.50717e-008 -3.34916
vn 0.866025 3.69719e-007 0.5
vt 5.67069e-008 -0.696352
vt -0.03937 -0.696352
v 139.066 1.99997 -142.401
vt -0.0393701 -3.34916
f 11/23/6 9/24/6 8/25/6 12/26/6 

v 135.709 1.99998 -121.759
vt 3.02536 -0.0850609
vn -1.89724e-007 1 -4.41562e-007
f 13/27/7 12/21/7 8/20/7

v 136.692 1.99998 -122.513
vt 3.05289 -0.125355
f 14/28/7 12/21/7 13/27/7

v 137.837 1.99998 -122.988
vt 3.06906 -0.171402
f 15/29/7 12/21/7 14/28/7

v 139.066 1.99998 -123.15
vt 3.07275 -0.220063
f 16/30/7 12/21/7 15/29/7

v 140.295 1.99998 -122.988
vt 3.06372 -0.268022
f 17/31/7 12/21/7 16/30/7

v 141.44 1.99998 -122.513
vt 3.04259 -0.312011
f 18/32/7 12/21/7 17/31/7

v 142.424 1.99998 -121.759
vt 3.0108 -0.349032
f 19/33/7 12/21/7 18/32/7

v 143.178 1.99998 -120.775
vt 2.9705 -0.376562
f 20/34/7 12/21/7 19/33/7

v 143.653 1.99998 -119.63
vt 2.92446 -0.392725
f 21/35/7 12/21/7 20/34/7

v 147.871 1.99999 -101.771
vt 2.21324 -0.519794
f 22/36/7 12/21/7 21/35/7

v 148.466 1.99999 -102.126
vt 2.22594 -0.543971
f 23/37/7 12/21/7 22/36/7

v 148.935 1.99999 -102.407
vt 2.23593 -0.563
f 24/38/7 12/21/7 23/37/7

v 150.127 1.99999 -102.745
vt 2.24666 -0.610607
f 25/39/7 12/21/7 24/38/7

v 151.367 1.99999 -102.764
vt 2.2447 -0.659369
f 26/40/7 12/21/7 25/39/7

v 152.569 1.99999 -102.461
vt 2.2302 -0.705963
f 27/41/7 12/21/7 26/40/7

v 153.651 1.99999 -101.858
vt 2.20412 -0.747215
f 28/42/7 12/21/7 27/41/7

v 154.541 1.99999 -100.994
vt 2.16826 -0.780312
f 29/43/7 12/21/7 28/42/7

v 155.177 2 -99.9304
vt 2.12505 -0.803
f 30/44/7 12/21/7 29/43/7

f 30/44/7 7/22/7 12/21/7

v 155.515 2 -98.738
vt 2.07745 -0.813732
f 7/22/7 30/44/7 31/45/7

v 155.515 7.99999 -98.738
vt -0.19685 1.84764
vn 0.989369 1.23491e-007 -0.145427
vt 0.0393701 1.84764
vt 0.0393701 1.89644
vn 0.918018 -9.27276e-010 -0.396539
v 155.177 7.99999 -99.9304
vt -0.19685 1.89644
f 32/46/8 31/47/8 30/48/9 33/49/9 

v 155.534 8 -97.4986
vt 0.196851 -2.05958
vn 0.993296 2.39494e-007 0.115596
v 155.534 2 -97.4986
vt -0.0393697 -2.05958
vt -0.0393697 -2.10838
vt 0.196851 -2.10838
f 34/50/10 35/51/10 31/52/8 32/53/8 

v 155.231 8 -96.2966
vt 0.19685 -2.1295
vn 0.929532 3.39176e-007 0.368741
v 155.231 2 -96.2966
vt -0.03937 -2.1295
vt -0.03937 -2.1783
vt 0.19685 -2.1783
f 36/54/11 37/55/11 35/56/10 34/57/10 

v 154.628 8 -95.2139
vt 0.19685 -2.05263
vn 0.802422 4.15744e-007 0.596757
v 154.628 2 -95.2139
vt -0.03937 -2.05263
vt -0.03937 -2.10143
vt 0.19685 -2.10143
f 38/58/12 39/59/12 37/60/11 36/61/11 

v 153.765 8 -94.3244
vt 0.19685 -1.83422
vn 0.620628 4.63979e-007 0.784105
v 153.765 2 -94.3244
vt -0.03937 -1.83422
vt -0.03937 -1.88302
vt 0.19685 -1.88302
f 40/62/13 41/63/13 39/64/12 38/65/12 

v 152.701 8 -93.6885
vt 0.19685 -1.48914
vn 0.39654 4.80595e-007 0.918018
v 152.701 2 -93.6885
vt -0.03937 -1.48914
vt -0.03937 -1.53794
vt 0.19685 -1.53794
f 42/66/14 43/67/14 41/68/13 40/69/13 

v 151.508 8 -93.3497
vt 0.19685 -1.04092
vn 0.145427 4.64459e-007 0.989369
v 151.508 2 -93.3497
vt -0.03937 -1.04092
vt -0.03937 -1.08972
vt 0.19685 -1.08972
f 44/70/15 45/71/15 43/72/14 42/73/14 

v 150.269 8 -93.3311
vt 0.19685 -0.520103
vn -0.115595 4.16671e-007 0.993296
v 150.269 2 -93.3311
vt -0.03937 -0.520103
vt -0.03937 -0.568905
vt 0.19685 -0.568905
f 46/74/16 47/75/16 45/76/15 44/77/15 

v 149.067 8 -93.6338
vt 0.19685 0.0378238
vn -0.368741 3.40488e-007 0.929532
v 149.067 2 -93.6338
vt -0.03937 0.0378238
vt -0.03937 -0.0109773
vt 0.19685 -0.0109773
f 48/78/17 49/79/17 47/80/16 46/81/16 

v 147.984 8 -94.2374
vt 0.19685 0.594836
vn -0.596757 2.41101e-007 0.802422
v 147.984 2 -94.2374
vt -0.03937 0.594836
vt -0.03937 0.546035
vt 0.19685 0.546035
f 50/82/18 51/83/18 49/84/17 48/85/17 

v 147.094 7.99999 -95.1006
vt 0.19685 1.11297
vn -0.784105 1.25283e-007 0.620628
v 147.094 2 -95.1006
vt -0.03937 1.11297
vt -0.03937 1.06417
vt 0.19685 1.06417
f 52/86/19 53/87/19 51/88/18 50/89/18 

v 146.459 7.99999 -96.1646
vt 0.19685 1.55693
vn -0.918018 9.27276e-010 0.396539
v 146.459 2 -96.1646
vt -0.03937 1.55693
vt -0.03937 1.50813
vt 0.19685 1.50813
f 54/90/20 55/91/20 53/92/19 52/93/19 

v 146.12 7.99999 -97.357
vt 0.19685 1.89644
vn -0.989369 -1.23491e-007 0.145427
v 146.12 1.99999 -97.357
vt -0.0393701 1.89644
vt -0.0393701 1.84764
vt 0.19685 1.84764
f 56/94/21 57/95/21 55/96/20 54/97/20 

v 146.109 7.99999 -98.0505
vt -0.196851 -2.08689
vn -0.999887 -1.83059e-007 0.0150445
v 146.109 1.99999 -98.0505
vt 0.0393697 -2.08689
vt 0.0393697 -2.05958
vt -0.196851 -2.05958
f 58/98/22 59/99/22 57/100/21 56/101/21 

v 146.101 7.99999 -98.5964
vt -0.196851 -2.10838
vn -0.993296 -2.39494e-007 -0.115596
v 146.101 1.99999 -98.5964
vt 0.0393697 -2.10838
f 60/102/23 61/103/23 59/99/22 58/98/22 

v 146.404 7.99999 -99.7984
vt -0.19685 -2.1783
vn -0.929532 -3.39176e-007 -0.368741
v 146.404 1.99999 -99.7984
vt 0.03937 -2.1783
vt 0.03937 -2.1295
vt -0.19685 -2.1295
f 62/104/24 63/105/24 61/106/23 60/107/23 

v 147.008 7.99999 -100.881
vt -0.19685 -2.10143
vn -0.802422 -4.15744e-007 -0.596757
v 147.008 1.99999 -100.881
vt 0.03937 -2.10143
vt 0.03937 -2.05263
vt -0.19685 -2.05263
f 64/108/25 65/109/25 63/110/24 62/111/24 

v 147.871 7.99999 -101.771
vt -0.19685 -1.88302
vn -0.620628 -4.63979e-007 -0.784105
vt 0.03937 -1.88302
vt 0.03937 -1.83422
vt -0.19685 -1.83422
f 66/112/26 22/113/26 65/114/25 64/115/25 

v 148.466 7.99999 -102.126
vt -0.19685 -1.51645
vn -0.512972 -4.76362e-007 -0.858405
vt 0.03937 -1.51645
vt 0.03937 -1.48914
vt -0.19685 -1.48914
f 67/116/27 23/117/27 22/118/26 66/119/26 

v 148.935 7.99999 -102.407
vt -0.19685 -1.53794
vn -0.39654 -4.80595e-007 -0.918018
vt 0.03937 -1.53794
f 68/120/28 24/121/28 23/117/27 67/116/27 

v 150.127 7.99999 -102.745
vt -0.19685 -1.08972
vn -0.145427 -4.64459e-007 -0.989369
vt 0.03937 -1.08972
vt 0.03937 -1.04092
vt -0.19685 -1.04092
f 69/122/29 25/123/29 24/124/28 68/125/28 

v 151.367 7.99999 -102.764
vt -0.19685 -0.568905
vn 0.115595 -4.16671e-007 -0.993296
vt 0.03937 -0.568905
vt 0.03937 -0.520103
vt -0.19685 -0.520103
f 70/126/30 26/127/30 25/128/29 69/129/29 

v 152.569 7.99999 -102.461
vt -0.19685 -0.0109774
vn 0.368741 -3.40488e-007 -0.929532
vt 0.03937 -0.0109774
vt 0.03937 0.0378237
vt -0.19685 0.0378237
f 71/130/31 27/131/31 26/132/30 70/133/30 

v 153.651 7.99999 -101.858
vt -0.19685 0.546035
vn 0.596757 -2.41101e-007 -0.802422
vt 0.03937 0.546035
vt 0.03937 0.594836
vt -0.19685 0.594836
f 72/134/32 28/135/32 27/136/31 71/137/31 

v 154.541 7.99999 -100.994
vt -0.19685 1.06417
vn 0.784105 -1.25283e-007 -0.620628
vt 0.03937 1.06417
vt 0.03937 1.11297
vt -0.19685 1.11297
f 73/138/33 29/139/33 28/140/32 72/141/32 

vt -0.19685 1.50813
vt 0.03937 1.50813
vt 0.03937 1.55693
vt -0.19685 1.55693
f 33/142/9 30/143/9 29/144/33 73/145/33 

vt 1.94084 -0.771193
vt 1.98209 -0.797267
vt 2.02868 -0.811776
vt 2.18014 -0.483931
vt 2.13889 -0.457857
vt 2.0923 -0.443348
vt 2.07082 -0.442487
vt 2.04354 -0.441393
vt 1.99593 -0.452125
vt 1.95272 -0.474812
vt 1.91686 -0.50791
vt 1.89079 -0.549161
vt 1.87628 -0.595755
vt 1.87432 -0.644517
vt 1.88505 -0.692124
vt 1.90774 -0.73533
f 38/146/7 36/147/7 34/148/7 32/45/7 33/44/7 73/43/7 72/42/7 71/41/7 70/40/7 69/39/7 68/38/7 67/37/7 66/36/7 64/149/7 62/150/7 60/151/7 58/152/7 56/153/7 54/154/7 52/155/7 50/156/7 48/157/7 46/158/7 44/159/7 42/160/7 40/161/7 

f 22/36/7 21/35/7 65/149/7

f 65/149/7 21/35/7 63/150/7

v 143.815 1.99999 -118.401
vt 2.8758 -0.39642
f 63/150/7 21/35/7 74/162/7

v 143.815 7.99998 -118.401
vt -0.19685 2.83753
vn 1 1.89724e-007 3.37075e-007
vt 0.0393702 2.83753
vt 0.0393702 2.88633
vn 0.965926 6.89743e-008 -0.258819
v 143.653 7.99998 -119.63
vt -0.19685 2.88633
f 75/163/34 74/164/34 21/165/35 76/166/35 

v 143.653 7.99998 -117.172
vt 0.196851 -2.8507
vn 0.965926 2.97544e-007 0.258819
v 143.653 1.99999 -117.172
vt -0.0393699 -2.8507
vt -0.0393699 -2.8995
vt 0.196851 -2.8995
f 77/167/36 78/168/36 74/169/34 75/170/34 

v 143.178 7.99998 -116.027
vt 0.19685 -2.66793
vn 0.866025 3.85087e-007 0.5
v 143.178 1.99999 -116.027
vt -0.0393699 -2.66793
vt -0.0393699 -2.71673
vt 0.19685 -2.71673
f 79/171/37 80/172/37 78/173/36 77/174/36 

v 142.424 7.99999 -115.044
vt 0.19685 -2.30169
vn 0.707107 4.46387e-007 0.707107
v 142.424 1.99999 -115.044
vt -0.03937 -2.30169
vt -0.03937 -2.35049
vt 0.19685 -2.35049
f 81/175/38 82/176/38 80/177/37 79/178/37 

v 141.44 7.99999 -114.289
vt 0.19685 -1.77693
vn 0.5 4.77266e-007 0.866026
v 141.44 1.99999 -114.289
vt -0.03937 -1.77693
vt -0.03937 -1.82573
vt 0.19685 -1.82573
f 83/179/39 84/180/39 82/181/38 81/182/38 

v 140.295 7.99999 -113.815
vt 0.19685 -1.12941
vn 0.258819 4.75621e-007 0.965926
v 140.295 1.99999 -113.815
vt -0.03937 -1.12941
vt -0.03937 -1.17821
vt 0.19685 -1.17821
f 85/183/40 86/184/40 84/185/39 83/186/39 

v 139.066 7.99999 -113.653
vt 0.19685 -0.403255
vn -1.80378e-007 4.41562e-007 1
v 139.066 1.99999 -113.653
vt -0.03937 -0.403255
vt -0.03937 -0.452056
vt 0.19685 -0.452056
f 87/187/41 88/188/41 86/189/40 85/190/40 

v 137.837 7.99998 -113.815
vt 0.19685 0.352039
vn -0.258819 3.77412e-007 0.965926
v 137.837 1.99999 -113.815
vt -0.03937 0.352039
vt -0.03937 0.303238
vt 0.19685 0.303238
f 89/191/42 90/192/42 88/193/41 87/194/41 

v 136.692 7.99998 -114.289
vt 0.19685 1.08501
vn -0.5 2.87542e-007 0.866025
v 136.692 1.99999 -114.289
vt -0.03937 1.08501
vt -0.03937 1.0362
vt 0.19685 1.0362
f 91/195/43 92/196/43 90/197/42 89/198/42 

v 135.709 7.99998 -115.044
vt 0.19685 1.74569
vn -0.707107 1.78077e-007 0.707107
v 135.709 1.99999 -115.044
vt -0.03937 1.74569
vt -0.03937 1.69689
vt 0.19685 1.69689
f 93/199/44 94/200/44 92/201/43 91/202/43 

v 134.954 7.99998 -116.027
vt 0.19685 2.28908
vn -0.866026 5.64756e-008 0.5
v 134.954 1.99998 -116.027
vt -0.03937 2.28908
vt -0.03937 2.24028
vt 0.19685 2.24028
f 95/203/45 96/204/45 94/205/44 93/206/44 

v 134.48 7.99998 -117.172
vt 0.19685 2.67813
vn -0.965926 -6.89743e-008 0.258819
v 134.48 1.99998 -117.172
vt -0.03937 2.67813
vt -0.03937 2.62933
vt 0.19685 2.62933
f 97/207/46 98/208/46 96/209/45 95/210/45 

v 134.318 7.99998 -118.401
vt 0.19685 2.88633
vn -1 -1.89724e-007 -3.37075e-007
v 134.318 1.99998 -118.401
vt -0.0393702 2.88633
vt -0.0393702 2.83753
vt 0.19685 2.83753
f 99/211/47 100/212/47 98/213/46 97/214/46 

v 134.48 7.99998 -119.63
vt -0.196851 -2.8995
vn -0.965926 -2.97544e-007 -0.258819
v 134.48 1.99998 -119.63
vt 0.0393699 -2.8995
vt 0.0393699 -2.8507
vt -0.196851 -2.8507
f 101/215/48 102/216/48 100/217/47 99/218/47 

v 134.954 7.99998 -120.775
vt -0.19685 -2.71673
vn -0.866025 -3.85087e-007 -0.5
v 134.954 1.99998 -120.775
vt 0.0393699 -2.71673
vt 0.0393699 -2.66793
vt -0.19685 -2.66793
f 103/219/49 104/220/49 102/221/48 101/222/48 

v 135.709 7.99998 -121.759
vt -0.19685 -2.35049
vn -0.707107 -4.46387e-007 -0.707107
vt 0.03937 -2.35049
vt 0.03937 -2.30169
vt -0.19685 -2.30169
f 105/223/50 13/224/50 104/225/49 103/226/49 

v 136.692 7.99998 -122.513
vt -0.19685 -1.82573
vn -0.5 -4.77266e-007 -0.866026
vt 0.03937 -1.82573
vt 0.03937 -1.77693
vt -0.19685 -1.77693
f 106/227/51 14/228/51 13/229/50 105/230/50 

v 137.837 7.99998 -122.988
vt -0.19685 -1.17821
vn -0.258819 -4.75621e-007 -0.965926
vt 0.03937 -1.17821
vt 0.03937 -1.12941
vt -0.19685 -1.12941
f 107/231/52 15/232/52 14/233/51 106/234/51 

v 139.066 7.99998 -123.15
vt -0.19685 -0.452056
vn 1.80378e-007 -4.41562e-007 -1
vt 0.03937 -0.452056
vt 0.03937 -0.403255
vt -0.19685 -0.403255
f 108/235/53 16/236/53 15/237/52 107/238/52 

v 140.295 7.99998 -122.988
vt -0.19685 0.303238
vn 0.258819 -3.77412e-007 -0.965926
vt 0.03937 0.303238
vt 0.03937 0.352039
vt -0.19685 0.352039
f 109/239/54 17/240/54 16/241/53 108/242/53 

v 141.44 7.99998 -122.513
vt -0.19685 1.0362
vn 0.5 -2.87542e-007 -0.866025
vt 0.03937 1.0362
vt 0.03937 1.08501
vt -0.19685 1.08501
f 110/243/55 18/244/55 17/245/54 109/246/54 

v 142.424 7.99998 -121.759
vt -0.19685 1.69689
vn 0.707107 -1.78077e-007 -0.707107
vt 0.03937 1.69689
vt 0.03937 1.74569
vt -0.19685 1.74569
f 111/247/56 19/248/56 18/249/55 110/250/55 

v 143.178 7.99998 -120.775
vt -0.19685 2.24028
vn 0.866026 -5.64756e-008 -0.5
vt 0.03937 2.24028
vt 0.03937 2.28908
vt -0.19685 2.28908
f 112/251/57 20/252/57 19/253/56 111/254/56 

vt -0.19685 2.62933
vt 0.03937 2.62933
vt 0.03937 2.67813
vt -0.19685 2.67813
f 76/255/35 21/256/35 20/257/57 112/258/57 

vt 2.98834 -0.0532647
vt 2.94435 -0.0321337
vt 2.89639 -0.0231079
vt 2.84773 -0.0268025
vt 2.80169 -0.0429655
vt 2.76139 -0.0704956
vt 2.7296 -0.107517
vt 2.70846 -0.151506
vt 2.69944 -0.199465
vt 2.70313 -0.248126
vt 2.7193 -0.294173
vt 2.74683 -0.334467
vt 2.78385 -0.366263
vt 2.82784 -0.387394
f 110/32/7 109/31/7 108/30/7 107/29/7 106/28/7 105/27/7 103/259/7 101/260/7 99/261/7 97/262/7 95/263/7 93/264/7 91/265/7 89/266/7 87/267/7 85/268/7 83/269/7 81/270/7 79/271/7 77/272/7 75/162/7 76/35/7 112/34/7 111/33/7 

f 13/27/7 8/20/7 104/259/7

f 104/259/7 8/20/7 102/260/7

f 102/260/7 8/20/7 100/261/7

v 123.958 1.99999 -101.405
vt 2.25074 0.421034
f 100/261/7 8/20/7 113/273/7

v 123.203 1.99999 -100.422
vt 2.21372 0.45283
f 113/273/7 8/20/7 114/274/7

v 122.729 1.99999 -99.2765
vt 2.16973 0.473961
f 114/274/7 8/20/7 115/275/7

v 122.567 1.99999 -98.0475
vt 2.12177 0.482987
f 115/275/7 8/20/7 116/276/7

v 122.729 1.99999 -96.8186
vt 2.07311 0.479292
f 8/20/7 117/277/7 116/276/7

v 123.203 1.99999 -95.6734
vt 2.02706 0.463129
f 8/20/7 118/278/7 117/277/7

v 123.958 1.99999 -94.69
vt 1.98677 0.435599
f 8/20/7 119/279/7 118/278/7

v 124.941 1.99999 -93.9354
vt 1.95497 0.398578
f 8/20/7 120/280/7 119/279/7

v 126.086 1.99999 -93.461
vt 1.93384 0.354589
f 8/20/7 121/281/7 120/280/7

v 127.315 1.99999 -93.2992
vt 1.92481 0.30663
f 8/20/7 122/282/7 121/281/7

v 128.544 1.99999 -93.461
vt 1.92851 0.257969
f 8/20/7 123/283/7 122/282/7

f 8/20/7 57/153/7 123/283/7

f 8/20/7 55/154/7 57/153/7

f 8/20/7 53/155/7 55/154/7

f 8/20/7 51/156/7 53/155/7

f 8/20/7 49/157/7 51/156/7

f 8/20/7 47/158/7 49/157/7

f 8/20/7 45/159/7 47/158/7

f 7/22/7 45/159/7 8/20/7

f 45/159/7 7/22/7 43/160/7

f 43/160/7 7/22/7 41/161/7

f 41/161/7 7/22/7 39/146/7

f 39/146/7 7/22/7 37/147/7

f 37/147/7 7/22/7 35/148/7

f 35/148/7 7/22/7 31/45/7

v 129.689 1.99999 -93.9354
vt 1.94467 0.211922
f 123/283/7 57/153/7 124/284/7

v 130.673 1.99999 -94.69
vt 1.9722 0.171628
f 124/284/7 57/153/7 125/285/7

v 131.427 1.99999 -95.6734
vt 2.00922 0.139832
f 125/285/7 57/153/7 126/286/7

f 126/286/7 57/153/7 80/271/7

f 80/271/7 57/153/7 78/272/7

f 78/272/7 57/153/7 74/162/7

f 59/152/7 74/162/7 57/153/7

f 61/151/7 74/162/7 59/152/7

f 63/150/7 74/162/7 61/151/7

f 126/286/7 80/271/7 82/270/7

f 126/286/7 82/270/7 84/269/7

f 126/286/7 84/269/7 86/268/7

f 126/286/7 86/268/7 88/267/7

v 131.902 1.99999 -96.8186
vt 2.05321 0.118701
f 126/286/7 88/267/7 127/287/7

f 127/287/7 88/267/7 90/266/7

f 127/287/7 90/266/7 92/265/7

f 127/287/7 92/265/7 94/264/7

f 127/287/7 94/264/7 96/263/7

v 132.063 1.99999 -98.0475
vt 2.10117 0.109675
f 127/287/7 96/263/7 128/288/7

f 128/288/7 96/263/7 98/262/7

f 128/288/7 98/262/7 100/261/7

v 131.902 1.99999 -99.2764
vt 2.14983 0.113369
f 100/261/7 129/289/7 128/288/7

v 131.427 1.99999 -100.422
vt 2.19588 0.129532
f 100/261/7 130/290/7 129/289/7

v 130.673 1.99999 -101.405
vt 2.23617 0.157063
f 100/261/7 131/291/7 130/290/7

v 129.689 1.99999 -102.16
vt 2.26797 0.194084
f 100/261/7 132/292/7 131/291/7

v 128.544 1.99999 -102.634
vt 2.2891 0.238072
f 100/261/7 133/293/7 132/292/7

v 127.315 1.99999 -102.796
vt 2.29812 0.286032
f 100/261/7 134/294/7 133/293/7

v 126.086 1.99999 -102.634
vt 2.29443 0.334693
f 100/261/7 135/295/7 134/294/7

v 124.941 1.99999 -102.16
vt 2.27827 0.38074
f 100/261/7 136/296/7 135/295/7

f 100/261/7 113/273/7 136/296/7

v 124.941 7.99999 -102.16
vt -0.19685 -0.970863
vt 0.03937 -0.970863
vt 0.03937 -0.922062
v 123.958 7.99999 -101.405
vt -0.19685 -0.922062
f 137/297/51 136/298/51 113/299/50 138/300/50 

v 126.086 7.99999 -102.634
vt -0.19685 -0.444118
vt 0.03937 -0.444118
vt 0.03937 -0.395317
vt -0.19685 -0.395317
f 139/301/52 135/302/52 136/303/51 137/304/51 

v 127.315 7.99999 -102.796
vt -0.19685 0.11123
vt 0.03937 0.11123
vt 0.03937 0.160031
vt -0.19685 0.160031
f 140/305/53 134/306/53 135/307/52 139/308/52 

v 128.544 7.99999 -102.634
vt -0.19685 0.657334
vt 0.03937 0.657334
vt 0.03937 0.706136
vt -0.19685 0.706136
f 141/309/54 133/310/54 134/311/53 140/312/53 

v 129.689 7.99999 -102.16
vt -0.19685 1.15698
vt 0.03937 1.15698
vt 0.03937 1.20578
vt -0.19685 1.20578
f 142/313/55 132/314/55 133/315/54 141/316/54 

v 130.673 7.99999 -101.405
vt -0.19685 1.57612
vt 0.03937 1.57612
vt 0.03937 1.62492
vt -0.19685 1.62492
f 143/317/56 131/318/56 132/319/55 142/320/55 

v 131.427 7.99999 -100.422
vt -0.19685 1.88618
vt 0.03937 1.88618
vt 0.03937 1.93498
vt -0.19685 1.93498
f 144/321/57 130/322/57 131/323/56 143/324/56 

v 131.902 7.99999 -99.2765
vt -0.19685 2.06604
vt 0.03937 2.06604
vt 0.03937 2.11484
vt -0.19685 2.11484
f 145/325/35 129/326/35 130/327/57 144/328/57 

v 132.063 7.99999 -98.0475
vt -0.19685 2.10344
vt 0.0393702 2.10344
vt 0.0393702 2.15224
vt -0.19685 2.15224
f 146/329/34 128/330/34 129/331/35 145/332/35 

v 131.902 7.99999 -96.8186
vt 0.196851 -1.99583
vt -0.0393699 -1.99583
vt -0.0393699 -2.04464
vt 0.196851 -2.04464
f 147/333/36 127/334/36 128/335/34 146/336/34 

v 131.427 7.99999 -95.6734
vt 0.19685 -1.75055
vt -0.03937 -1.75055
vt -0.03937 -1.79935
vt 0.19685 -1.79935
f 148/337/37 126/338/37 127/339/36 147/340/36 

v 130.673 7.99999 -94.69
vt 0.19685 -1.38431
vt -0.03937 -1.38431
vt -0.03937 -1.43311
vt 0.19685 -1.43311
f 149/341/38 125/342/38 126/343/37 148/344/37 

v 129.689 7.99999 -93.9354
vt 0.19685 -0.922062
vt -0.03937 -0.922062
vt -0.03937 -0.970863
vt 0.19685 -0.970863
f 150/345/39 124/346/39 125/347/38 149/348/38 

v 128.544 7.99999 -93.461
vt 0.19685 -0.395317
vt -0.03937 -0.395317
vt -0.03937 -0.444118
vt 0.19685 -0.444118
f 151/349/40 123/350/40 124/351/39 150/352/39 

v 127.315 7.99999 -93.2992
vt 0.19685 0.160031
vt -0.03937 0.160031
vt -0.03937 0.11123
vt 0.19685 0.11123
f 152/353/41 122/354/41 123/355/40 151/356/40 

v 126.086 7.99999 -93.461
vt 0.19685 0.706136
vt -0.03937 0.706136
vt -0.03937 0.657335
vt 0.19685 0.657335
f 153/357/42 121/358/42 122/359/41 152/360/41 

v 124.941 7.99999 -93.9354
vt 0.19685 1.20578
vt -0.03937 1.20578
vt -0.03937 1.15698
vt 0.19685 1.15698
f 154/361/43 120/362/43 121/363/42 153/364/42 

v 123.958 7.99999 -94.69
vt 0.19685 1.62492
vt -0.03937 1.62492
vt -0.03937 1.57612
vt 0.19685 1.57612
f 155/365/44 119/366/44 120/367/43 154/368/43 

v 123.203 7.99999 -95.6734
vt 0.19685 1.93498
vt -0.03937 1.93498
vt -0.03937 1.88618
vt 0.19685 1.88618
f 156/369/45 118/370/45 119/371/44 155/372/44 

v 122.729 7.99999 -96.8186
vt 0.19685 2.11484
vt -0.03937 2.11484
vt -0.03937 2.06604
vt 0.19685 2.06604
f 157/373/46 117/374/46 118/375/45 156/376/45 

v 122.567 7.99999 -98.0475
vt 0.19685 2.15224
vt -0.0393702 2.15224
vt -0.0393702 2.10344
vt 0.19685 2.10344
f 158/377/47 116/378/47 117/379/46 157/380/46 

v 122.729 7.99999 -99.2765
vt -0.196851 -2.04464
vt 0.0393699 -2.04464
vt 0.0393699 -1.99583
vt -0.196851 -1.99583
f 159/381/48 115/382/48 116/383/47 158/384/47 

v 123.203 7.99999 -100.422
vt -0.19685 -1.79935
vt 0.03937 -1.79935
vt 0.03937 -1.75055
vt -0.19685 -1.75055
f 160/385/49 114/386/49 115/387/48 159/388/48 

vt -0.19685 -1.43311
vt 0.03937 -1.43311
vt 0.03937 -1.38431
vt -0.19685 -1.38431
f 138/389/50 113/390/50 114/391/49 160/392/49 

f 156/278/7 155/279/7 154/280/7 153/281/7 152/282/7 151/283/7 150/284/7 149/285/7 148/286/7 147/287/7 146/288/7 145/289/7 144/290/7 143/291/7 142/292/7 141/293/7 140/294/7 139/295/7 137/296/7 138/273/7 160/274/7 159/275/7 158/276/7 157/277/7 

vt 3.49787e-008 0.645912
vn -0.866026 4.11073e-008 0.5
vt -8.28515e-008 3.29872
vt -0.0393702 3.29872
vt -0.03937 0.645912
f 6/393/58 11/394/58 12/395/58 7/396/58 

