solid theuntitled
facet normal 0.33016038113215695 0.7243992813917809 0.6051774978051814
  outer loop
    vertex -69.73396927323708 63.61408790083852 61.27964736748673
    vertex -70.4288662172399 59.32625681010703 66.79130575929855
    vertex -62.39509136457856 60.26935556455233 61.27951304154102
  endloop
endfacet
facet normal 0.33016038113215695 0.7243992813917809 0.6051774978051814
  outer loop
    vertex -70.4288662172399 59.32625681010703 66.79130575929855
    vertex -69.73396927323708 63.61408790083852 61.27964736748673
    vertex -78.96414545339246 67.82078940494746 61.279826753414184
  endloop
endfacet
facet normal 0.33016038113215695 0.7243992813917809 0.6051774978051814
  outer loop
    vertex -70.4288662172399 59.32625681010703 66.79130575929855
    vertex -78.96414545339246 67.82078940494746 61.279826753414184
    vertex -88.19432163354752 72.0274909090564 61.28000613934168
  endloop
endfacet
facet normal 0.33016038113215695 0.7243992813917809 0.6051774978051814
  outer loop
    vertex -70.4288662172399 59.32625681010703 66.79130575929855
    vertex -88.19432163354752 72.0274909090564 61.28000613934168
    vertex -83.32847742794583 65.20532050530363 66.7915543977316
  endloop
endfacet
facet normal 0.7924472966075164 0.07626348385534384 0.6051538342683491
  outer loop
    vertex -113.27836318870132 69.61277368765106 61.28000476959586
    vertex -115.4273991829823 48.21270687554136 66.79106860981923
    vertex -110.56159231158475 41.39092074078499 61.27901178160204
  endloop
endfacet
facet normal 0.7924472966075164 0.07626348385534384 0.6051538342683491
  outer loop
    vertex -115.4273991829823 48.21270687554136 66.79106860981923
    vertex -113.27836318870132 69.61277368765106 61.28000476959586
    vertex -116.78578462154057 62.323633348974404 66.79156510381613
  endloop
endfacet
facet normal -0.5474743345029707 0.767580385553908 -0.33330497262033637
  outer loop
    vertex -99.34553935638614 87.66272874032398 27.784278250232322
    vertex -91.19862567835393 88.44739314885474 16.209494038123125
    vertex -102.73985797915385 80.2155360039658 16.209243193158915
  endloop
endfacet
facet normal 3.294991047827622e-06 -3.4811507753290506e-05 0.999999999388651
  outer loop
    vertex -85.47755041718716 43.80563443812185 61.27901315122382
    vertex -78.96414545339246 67.82078940494746 61.279826753414184
    vertex -88.19432163354752 72.0274909090564 61.28000613934168
  endloop
endfacet
facet normal 3.294991047827622e-06 -3.4811507753290506e-05 0.999999999388651
  outer loop
    vertex -78.96414545339246 67.82078940494746 61.279826753414184
    vertex -85.47755041718716 43.80563443812185 61.27901315122382
    vertex -62.39509136457856 60.26935556455233 61.27951304154102
  endloop
endfacet
facet normal 3.294991047827622e-06 -3.4811507753290506e-05 0.999999999388651
  outer loop
    vertex -78.96414545339246 67.82078940494746 61.279826753414184
    vertex -62.39509136457856 60.26935556455233 61.27951304154102
    vertex -69.73396927323708 63.61408790083852 61.27964736748673
  endloop
endfacet
facet normal 3.3473888530994065e-06 -3.4890837243913264e-05 0.9999999993857123
  outer loop
    vertex -129.02194467191518 49.80432374921025 61.279364612251406
    vertex -113.27836318870132 69.61277368765106 61.28000476959586
    vertex -136.36081473299657 53.14904813118055 61.27950900285232
  endloop
endfacet
facet normal 3.3473888530994065e-06 -3.4890837243913264e-05 0.9999999993857123
  outer loop
    vertex -113.27836318870132 69.61277368765106 61.28000476959586
    vertex -129.02194467191518 49.80432374921025 61.279364612251406
    vertex -119.79176849174982 45.59762224499762 61.27918819692671
  endloop
endfacet
facet normal 3.3473888530994065e-06 -3.4890837243913264e-05 0.9999999993857123
  outer loop
    vertex -113.27836318870132 69.61277368765106 61.28000476959586
    vertex -119.79176849174982 45.59762224499762 61.27918819692671
    vertex -110.56159231158475 41.39092074078499 61.27901178160204
  endloop
endfacet
facet normal -0.4741242197631533 0.6647136486670083 0.5773750856330522
  outer loop
    vertex -128.32701039368828 54.0917705707391 66.79131722044436
    vertex -113.27836318870132 69.61277368765106 61.28000476959586
    vertex -136.36081473299657 53.14904813118055 61.27950900285232
  endloop
endfacet
facet normal -0.4741242197631533 0.6647136486670083 0.5773750856330522
  outer loop
    vertex -113.27836318870132 69.61277368765106 61.28000476959586
    vertex -128.32701039368828 54.0917705707391 66.79131722044436
    vertex -116.78578462154057 62.323633348974404 66.79156510381613
  endloop
endfacet
facet normal 3.385476593175126e-06 -3.485917210432615e-05 0.9999999993866884
  outer loop
    vertex -115.4273991829823 48.21270687554136 66.79106860981923
    vertex -116.78578462154057 62.323633348974404 66.79156510381613
    vertex -128.32701039368828 54.0917705707391 66.79131722044436
  endloop
endfacet
facet normal 3.3880251281133225e-06 -3.4858310199265773e-05 0.9999999993867099
  outer loop
    vertex -70.4288662172399 59.32625681010703 66.79130575929855
    vertex -83.32847742794583 65.20532050530363 66.7915543977316
    vertex -81.97009198938724 51.09439403187029 66.79105791243508
  endloop
endfacet
facet normal -0.7924431980307723 -0.07630567399907483 0.6051538829176503
  outer loop
    vertex -81.97009198938724 51.09439403187029 66.79105791243508
    vertex -88.19432163354752 72.0274909090564 61.28000613934168
    vertex -85.47755041718716 43.80563443812185 61.27901315122382
  endloop
endfacet
facet normal -0.7924431980307723 -0.07630567399907483 0.6051538829176503
  outer loop
    vertex -88.19432163354752 72.0274909090564 61.28000613934168
    vertex -81.97009198938724 51.09439403187029 66.79105791243508
    vertex -83.32847742794583 65.20532050530363 66.7915543977316
  endloop
endfacet
facet normal -0.15804482973435569 0.22161120946908544 -0.9622423310330345
  outer loop
    vertex -102.73985797915385 80.2155360039658 16.209243193158915
    vertex -81.65605713722852 87.2750305805267 14.372156927589188
    vertex -104.73851618983677 70.81130945409637 14.371657037271873
  endloop
endfacet
facet normal -0.15804482973435569 0.22161120946908544 -0.9622423310330345
  outer loop
    vertex -81.65605713722852 87.2750305805267 14.372156927589188
    vertex -102.73985797915385 80.2155360039658 16.209243193158915
    vertex -91.19862567835393 88.44739314885474 16.209494038123125
  endloop
endfacet
facet normal 0.47412757984768467 -0.6647535619589132 0.5773263720727774
  outer loop
    vertex -62.39509136457856 60.26935556455233 61.27951304154102
    vertex -81.97009198938724 51.09439403187029 66.79105791243508
    vertex -85.47755041718716 43.80563443812185 61.27901315122382
  endloop
endfacet
facet normal 0.47412757984768467 -0.6647535619589132 0.5773263720727774
  outer loop
    vertex -81.97009198938724 51.09439403187029 66.79105791243508
    vertex -62.39509136457856 60.26935556455233 61.27951304154102
    vertex -70.4288662172399 59.32625681010703 66.79130575929855
  endloop
endfacet
facet normal 0.3909984022820018 0.8578986501268292 0.3333618987279235
  outer loop
    vertex -61.44979362452743 96.52884261874006 2.493020695661054
    vertex -43.3329300117933 83.65595719121632 14.371901634606974
    vertex -17.533698041876054 71.89781836301188 14.371400522690557
  endloop
endfacet
facet normal 0.3909984022820018 0.8578986501268292 0.3333618987279235
  outer loop
    vertex -43.3329300117933 83.65595719121632 14.371901634606974
    vertex -61.44979362452743 96.52884261874006 2.493020695661054
    vertex -37.3110491309303 62.68406573774981 61.27951652717695
  endloop
endfacet
facet normal 0.3909984022820018 0.8578986501268292 0.3333618987279235
  outer loop
    vertex -43.3329300117933 83.65595719121632 14.371901634606974
    vertex -37.3110491309303 62.68406573774981 61.27951652717695
    vertex -33.827520677716194 70.32848449852281 37.520980756878544
  endloop
endfacet
facet normal 0.3909984022820018 0.8578986501268292 0.3333618987279235
  outer loop
    vertex 4.066697750574269 66.66934904840582 2.491748134734169
    vertex -17.533698041876054 71.89781836301188 14.371400522690557
    vertex -37.3110491309303 62.68406573774981 61.27951652717695
  endloop
endfacet
facet normal 0.3909984022820018 0.8578986501268292 0.3333618987279235
  outer loop
    vertex -17.533698041876054 71.89781836301188 14.371400522690557
    vertex 4.066697750574269 66.66934904840582 2.491748134734169
    vertex -61.44979362452743 96.52884261874006 2.493020695661054
  endloop
endfacet
facet normal 0.3909984022820018 0.8578986501268292 0.3333618987279235
  outer loop
    vertex -37.3110491309303 62.68406573774981 61.27951652717695
    vertex -17.533698041876054 71.89781836301188 14.371400522690557
    vertex -33.827520677716194 70.32848449852281 37.520980756878544
  endloop
endfacet
facet normal -0.9696547856130155 0.1721607816779436 0.17358070742399984
  outer loop
    vertex -97.94987907544186 85.70569463908795 37.52172670421347
    vertex -102.73985797915385 80.2155360039658 16.209243193158915
    vertex -104.73851618983677 70.81130945409637 14.371657037271873
  endloop
endfacet
facet normal -0.9696547856130155 0.1721607816779436 0.17358070742399984
  outer loop
    vertex -102.73985797915385 80.2155360039658 16.209243193158915
    vertex -97.94987907544186 85.70569463908795 37.52172670421347
    vertex -99.34553935638614 87.66272874032398 27.784278250232322
  endloop
endfacet
facet normal -0.9384696342687945 -0.0903533149332552 0.33333320272059225
  outer loop
    vertex -104.81755413576583 71.47169152818134 49.96633174834828
    vertex -112.10385484347796 55.48542396289613 25.119169327462615
    vertex -101.90162098115877 41.18093812480851 49.965265965938116
  endloop
endfacet
facet normal 0.4741241457584262 -0.6647137953881224 -0.5773749774882527
  outer loop
    vertex -53.21284235200321 61.153680337982486 49.98329467174489
    vertex -89.30322291509138 35.41197060145937 49.982513072533706
    vertex -71.25595256855019 48.29949973317401 49.96541540398772
  endloop
endfacet
facet normal 0.4741241457584262 -0.6647137953881224 -0.5773749774882527
  outer loop
    vertex -61.44979362452743 96.52884261874006 2.493020695661054
    vertex -68.07494189185893 81.99173357819586 13.788754691463328
    vertex -104.16532245494692 56.25002384167288 13.787973092251947
  endloop
endfacet
facet normal 0.4741241457584262 -0.6647137953881224 -0.5773749774882527
  outer loop
    vertex -68.07494189185893 81.99173357819586 13.788754691463328
    vertex -61.44979362452743 96.52884261874006 2.493020695661054
    vertex -37.3110491309303 62.68406573774981 61.27951652717695
  endloop
endfacet
facet normal 0.4741241457584262 -0.6647137953881224 -0.5773749774882527
  outer loop
    vertex -68.07494189185893 81.99173357819586 13.788754691463328
    vertex -37.3110491309303 62.68406573774981 61.27951652717695
    vertex -53.21284235200321 61.153680337982486 49.98329467174489
  endloop
endfacet
facet normal 0.4741241457584262 -0.6647137953881224 -0.5773749774882527
  outer loop
    vertex -53.21284235200321 61.153680337982486 49.98329467174489
    vertex -37.3110491309303 62.68406573774981 61.27951652717695
    vertex -95.92837118242294 20.874861560915143 61.27824706833606
  endloop
endfacet
facet normal 0.4741241457584262 -0.6647137953881224 -0.5773749774882527
  outer loop
    vertex -120.06711567601975 54.71963844190557 2.4917512368198276
    vertex -104.16532245494692 56.25002384167288 13.787973092251947
    vertex -95.92837118242294 20.874861560915143 61.27824706833606
  endloop
endfacet
facet normal 0.4741241457584262 -0.6647137953881224 -0.5773749774882527
  outer loop
    vertex -104.16532245494692 56.25002384167288 13.787973092251947
    vertex -120.06711567601975 54.71963844190557 2.4917512368198276
    vertex -61.44979362452743 96.52884261874006 2.493020695661054
  endloop
endfacet
facet normal 0.4741241457584262 -0.6647137953881224 -0.5773749774882527
  outer loop
    vertex -95.92837118242294 20.874861560915143 61.27824706833606
    vertex -104.16532245494692 56.25002384167288 13.787973092251947
    vertex -89.30322291509138 35.41197060145937 49.982513072533706
  endloop
endfacet
facet normal 0.4741241457584262 -0.6647137953881224 -0.5773749774882527
  outer loop
    vertex -95.92837118242294 20.874861560915143 61.27824706833606
    vertex -89.30322291509138 35.41197060145937 49.982513072533706
    vertex -53.21284235200321 61.153680337982486 49.98329467174489
  endloop
endfacet
facet normal 0.3909982279029322 0.8578986923360322 0.3333619946318006
  outer loop
    vertex -102.82754310195978 92.54355361306541 61.280768736593515
    vertex -64.93332408331989 88.88442306564554 26.251553167994533
    vertex -61.44979362452743 96.52884261874006 2.493020695661054
  endloop
endfacet
facet normal 0.3909982279029322 0.8578986923360322 0.3333619946318006
  outer loop
    vertex -64.93332408331989 88.88442306564554 26.251553167994533
    vertex -102.82754310195978 92.54355361306541 61.280768736593515
    vertex -81.22714602153312 87.3150871242069 49.40112294461873
  endloop
endfacet
facet normal 0.3909982279029322 0.8578986923360322 0.3333619946318006
  outer loop
    vertex -81.22714602153312 87.3150871242069 49.40112294461873
    vertex -102.82754310195978 92.54355361306541 61.280768736593515
    vertex -37.3110491309303 62.68406573774981 61.27951652717695
  endloop
endfacet
facet normal 0.3909982279029322 0.8578986923360322 0.3333619946318006
  outer loop
    vertex -64.93332408331989 88.88442306564554 26.251553167994533
    vertex -37.3110491309303 62.68406573774981 61.27951652717695
    vertex -61.44979362452743 96.52884261874006 2.493020695661054
  endloop
endfacet
facet normal 0.3909982279029322 0.8578986923360322 0.3333619946318006
  outer loop
    vertex -37.3110491309303 62.68406573774981 61.27951652717695
    vertex -64.93332408331989 88.88442306564554 26.251553167994533
    vertex -55.42791575256448 75.55695177970284 49.40062984681808
  endloop
endfacet
facet normal 0.3909982279029322 0.8578986923360322 0.3333619946318006
  outer loop
    vertex -37.3110491309303 62.68406573774981 61.27951652717695
    vertex -55.42791575256448 75.55695177970284 49.40062984681808
    vertex -81.22714602153312 87.3150871242069 49.40112294461873
  endloop
endfacet
facet normal -0.3301562621336769 -0.7244414653894928 0.6051292471846352
  outer loop
    vertex -115.4273991829823 48.21270687554136 66.79106860981923
    vertex -119.79176849174982 45.59762224499762 61.27918819692671
    vertex -110.56159231158475 41.39092074078499 61.27901178160204
  endloop
endfacet
facet normal -0.3301562621336769 -0.7244414653894928 0.6051292471846352
  outer loop
    vertex -119.79176849174982 45.59762224499762 61.27918819692671
    vertex -115.4273991829823 48.21270687554136 66.79106860981923
    vertex -129.02194467191518 49.80432374921025 61.279364612251406
  endloop
endfacet
facet normal -0.3301562621336769 -0.7244414653894928 0.6051292471846352
  outer loop
    vertex -129.02194467191518 49.80432374921025 61.279364612251406
    vertex -115.4273991829823 48.21270687554136 66.79106860981923
    vertex -136.36081473299657 53.14904813118055 61.27950900285232
  endloop
endfacet
facet normal -0.3301562621336769 -0.7244414653894928 0.6051292471846352
  outer loop
    vertex -136.36081473299657 53.14904813118055 61.27950900285232
    vertex -115.4273991829823 48.21270687554136 66.79106860981923
    vertex -128.32701039368828 54.0917705707391 66.79131722044436
  endloop
endfacet
facet normal 3.218301932979736e-06 -3.4875265140488247e-05 0.9999999993866793
  outer loop
    vertex -95.92837118242294 20.874861560915143 61.27824706833606
    vertex -85.47755041718716 43.80563443812185 61.27901315122382
    vertex -88.19432163354752 72.0274909090564 61.28000613934168
  endloop
endfacet
facet normal 3.218301932979736e-06 -3.4875265140488247e-05 0.9999999993866793
  outer loop
    vertex -85.47755041718716 43.80563443812185 61.27901315122382
    vertex -95.92837118242294 20.874861560915143 61.27824706833606
    vertex -37.3110491309303 62.68406573774981 61.27951652717695
  endloop
endfacet
facet normal 3.218301932979736e-06 -3.4875265140488247e-05 0.9999999993866793
  outer loop
    vertex -85.47755041718716 43.80563443812185 61.27901315122382
    vertex -37.3110491309303 62.68406573774981 61.27951652717695
    vertex -62.39509136457856 60.26935556455233 61.27951304154102
  endloop
endfacet
facet normal 3.218301932979736e-06 -3.4875265140488247e-05 0.9999999993866793
  outer loop
    vertex -102.82754310195978 92.54355361306541 61.280768736593515
    vertex -88.19432163354752 72.0274909090564 61.28000613934168
    vertex -37.3110491309303 62.68406573774981 61.27951652717695
  endloop
endfacet
facet normal 3.218301932979736e-06 -3.4875265140488247e-05 0.9999999993866793
  outer loop
    vertex -88.19432163354752 72.0274909090564 61.28000613934168
    vertex -102.82754310195978 92.54355361306541 61.280768736593515
    vertex -95.92837118242294 20.874861560915143 61.27824706833606
  endloop
endfacet
facet normal 3.218301932979736e-06 -3.4875265140488247e-05 0.9999999993866793
  outer loop
    vertex -37.3110491309303 62.68406573774981 61.27951652717695
    vertex -88.19432163354752 72.0274909090564 61.28000613934168
    vertex -78.96414545339246 67.82078940494746 61.279826753414184
  endloop
endfacet
facet normal 3.218301932979736e-06 -3.4875265140488247e-05 0.9999999993866793
  outer loop
    vertex -37.3110491309303 62.68406573774981 61.27951652717695
    vertex -78.96414545339246 67.82078940494746 61.279826753414184
    vertex -69.73396927323708 63.61408790083852 61.27964736748673
  endloop
endfacet
facet normal 3.218301932979736e-06 -3.4875265140488247e-05 0.9999999993866793
  outer loop
    vertex -37.3110491309303 62.68406573774981 61.27951652717695
    vertex -69.73396927323708 63.61408790083852 61.27964736748673
    vertex -62.39509136457856 60.26935556455233 61.27951304154102
  endloop
endfacet
facet normal 0.547474819696988 -0.7675801877612708 0.33330463116212933
  outer loop
    vertex -112.10385484347796 55.48542396289613 25.119169327462615
    vertex -140.87305346368575 45.75485053987784 49.965555314363385
    vertex -123.38476373201267 47.43923886753007 25.11892501999559
  endloop
endfacet
facet normal 0.547474819696988 -0.7675801877612708 0.33330463116212933
  outer loop
    vertex -140.87305346368575 45.75485053987784 49.965555314363385
    vertex -112.10385484347796 55.48542396289613 25.119169327462615
    vertex -104.81755413576583 71.47169152818134 49.96633174834828
  endloop
endfacet
facet normal -0.39099814478939643 -0.8578987124540061 -0.33336204034204187
  outer loop
    vertex -95.92837118242294 20.874861560915143 61.27824706833606
    vertex -123.38476373201267 47.43923886753007 25.11892501999559
    vertex -120.06711567601975 54.71963844190557 2.4917512368198276
  endloop
endfacet
facet normal -0.39099814478939643 -0.8578987124540061 -0.33336204034204187
  outer loop
    vertex -123.38476373201267 47.43923886753007 25.11892501999559
    vertex -95.92837118242294 20.874861560915143 61.27824706833606
    vertex -113.18252986969262 33.13475302944147 49.96502165847033
  endloop
endfacet
facet normal -0.39099814478939643 -0.8578987124540061 -0.33336204034204187
  outer loop
    vertex -113.18252986969262 33.13475302944147 49.96502165847033
    vertex -95.92837118242294 20.874861560915143 61.27824706833606
    vertex -140.87305346368575 45.75485053987784 49.965555314363385
  endloop
endfacet
facet normal -0.39099814478939643 -0.8578987124540061 -0.33336204034204187
  outer loop
    vertex -123.38476373201267 47.43923886753007 25.11892501999559
    vertex -161.4448534058347 50.734332965530626 61.27950974930656
    vertex -120.06711567601975 54.71963844190557 2.4917512368198276
  endloop
endfacet
facet normal -0.39099814478939643 -0.8578987124540061 -0.33336204034204187
  outer loop
    vertex -161.4448534058347 50.734332965530626 61.27950974930656
    vertex -123.38476373201267 47.43923886753007 25.11892501999559
    vertex -140.87305346368575 45.75485053987784 49.965555314363385
  endloop
endfacet
facet normal -0.39099814478939643 -0.8578987124540061 -0.33336204034204187
  outer loop
    vertex -161.4448534058347 50.734332965530626 61.27950974930656
    vertex -140.87305346368575 45.75485053987784 49.965555314363385
    vertex -95.92837118242294 20.874861560915143 61.27824706833606
  endloop
endfacet
facet normal -0.5474746246677888 0.7675802526679193 -0.3333048020342894
  outer loop
    vertex -97.94987907544186 85.70569463908795 37.52172670421347
    vertex -81.65605713722852 87.2750305805267 14.372156927589188
    vertex -104.73851618983677 70.81130945409637 14.371657037271873
  endloop
endfacet
facet normal -3.340732675899257e-06 3.489071598629876e-05 -0.9999999993857389
  outer loop
    vertex -104.81755413576583 71.47169152818134 49.96633174834828
    vertex -113.18252986969262 33.13475302944147 49.96502165847033
    vertex -140.87305346368575 45.75485053987784 49.965555314363385
  endloop
endfacet
facet normal -3.340732675899257e-06 3.489071598629876e-05 -0.9999999993857389
  outer loop
    vertex -113.18252986969262 33.13475302944147 49.96502165847033
    vertex -104.81755413576583 71.47169152818134 49.96633174834828
    vertex -101.90162098115877 41.18093812480851 49.965265965938116
  endloop
endfacet
facet normal 3.385476593294497e-06 -3.485917210615131e-05 0.9999999993866884
  outer loop
    vertex -95.92837118242294 20.874861560915143 61.27824706833606
    vertex -136.36081473299657 53.14904813118055 61.27950900285232
    vertex -161.4448534058347 50.734332965530626 61.27950974930656
  endloop
endfacet
facet normal 3.385476593294497e-06 -3.485917210615131e-05 0.9999999993866884
  outer loop
    vertex -136.36081473299657 53.14904813118055 61.27950900285232
    vertex -95.92837118242294 20.874861560915143 61.27824706833606
    vertex -129.02194467191518 49.80432374921025 61.279364612251406
  endloop
endfacet
facet normal 3.385476593294497e-06 -3.485917210615131e-05 0.9999999993866884
  outer loop
    vertex -129.02194467191518 49.80432374921025 61.279364612251406
    vertex -95.92837118242294 20.874861560915143 61.27824706833606
    vertex -119.79176849174982 45.59762224499762 61.27918819692671
  endloop
endfacet
facet normal 3.385476593294497e-06 -3.485917210615131e-05 0.9999999993866884
  outer loop
    vertex -119.79176849174982 45.59762224499762 61.27918819692671
    vertex -95.92837118242294 20.874861560915143 61.27824706833606
    vertex -110.56159231158475 41.39092074078499 61.27901178160204
  endloop
endfacet
facet normal 3.385476593294497e-06 -3.485917210615131e-05 0.9999999993866884
  outer loop
    vertex -110.56159231158475 41.39092074078499 61.27901178160204
    vertex -95.92837118242294 20.874861560915143 61.27824706833606
    vertex -102.82754310195978 92.54355361306541 61.280768736593515
  endloop
endfacet
facet normal 3.385476593294497e-06 -3.485917210615131e-05 0.9999999993866884
  outer loop
    vertex -136.36081473299657 53.14904813118055 61.27950900285232
    vertex -102.82754310195978 92.54355361306541 61.280768736593515
    vertex -161.4448534058347 50.734332965530626 61.27950974930656
  endloop
endfacet
facet normal 3.385476593294497e-06 -3.485917210615131e-05 0.9999999993866884
  outer loop
    vertex -102.82754310195978 92.54355361306541 61.280768736593515
    vertex -136.36081473299657 53.14904813118055 61.27950900285232
    vertex -113.27836318870132 69.61277368765106 61.28000476959586
  endloop
endfacet
facet normal 3.385476593294497e-06 -3.485917210615131e-05 0.9999999993866884
  outer loop
    vertex -102.82754310195978 92.54355361306541 61.280768736593515
    vertex -113.27836318870132 69.61277368765106 61.28000476959586
    vertex -110.56159231158475 41.39092074078499 61.27901178160204
  endloop
endfacet
facet normal 0.152948706029362 0.972865943340315 0.1736045783166536
  outer loop
    vertex -91.19862567835393 88.44739314885474 16.209494038123125
    vertex -97.94987907544186 85.70569463908795 37.52172670421347
    vertex -81.65605713722852 87.2750305805267 14.372156927589188
  endloop
endfacet
facet normal 0.152948706029362 0.972865943340315 0.1736045783166536
  outer loop
    vertex -97.94987907544186 85.70569463908795 37.52172670421347
    vertex -91.19862567835393 88.44739314885474 16.209494038123125
    vertex -99.34553935638614 87.66272874032398 27.784278250232322
  endloop
endfacet
facet normal 0.5474749466445988 -0.7675800609712684 0.33330471463187805
  outer loop
    vertex -118.15613982957808 76.45187967644108 49.400865350298844
    vertex -129.57973158329915 61.11107262973499 32.83595232718457
    vertex -124.94477707511373 61.55749420372484 26.250795236152072
  endloop
endfacet
facet normal 0.5474749466445988 -0.7675800609712684 0.33330471463187805
  outer loop
    vertex -129.57973158329915 61.11107262973499 32.83595232718457
    vertex -118.15613982957808 76.45187967644108 49.400865350298844
    vertex -135.40916314269097 60.54961218791804 41.118160955334204
  endloop
endfacet
facet normal 0.5474749466445988 -0.7675800609712684 0.33330471463187805
  outer loop
    vertex -135.40916314269097 60.54961218791804 41.118160955334204
    vertex -118.15613982957808 76.45187967644108 49.400865350298844
    vertex -141.23859470208262 59.98815174610117 49.400369583483794
  endloop
endfacet
facet normal -0.33572661268421444 0.9258360140869532 -0.17353765169313137
  outer loop
    vertex -81.22714602153312 87.3150871242069 49.40112294461873
    vertex -63.859843232773464 91.23936027334013 36.73855505236261
    vertex -64.93332408331989 88.88442306564554 26.251553167994533
  endloop
endfacet
facet normal -0.33572661268421444 0.9258360140869532 -0.17353765169313137
  outer loop
    vertex -63.859843232773464 91.23936027334013 36.73855505236261
    vertex -81.22714602153312 87.3150871242069 49.40112294461873
    vertex -72.0572358659177 90.3439503226629 47.82018451403799
  endloop
endfacet
facet normal 0.3941447535880773 0.8648031967121999 0.31107128471679013
  outer loop
    vertex -30.25906889010685 78.15851559359947 30.9916399461578
    vertex -22.279967045946083 78.57496866846577 19.723897621960106
    vertex -35.17958303090469 84.45403808256799 19.724148177918313
  endloop
endfacet
facet normal -0.4741241457584184 0.6647137953881126 0.5773749774882702
  outer loop
    vertex -113.18252986969262 33.13475302944147 49.96502165847033
    vertex -112.10385484347796 55.48542396289613 25.119169327462615
    vertex -123.38476373201267 47.43923886753007 25.11892501999559
  endloop
endfacet
facet normal -0.4741241457584184 0.6647137953881126 0.5773749774882702
  outer loop
    vertex -112.10385484347796 55.48542396289613 25.119169327462615
    vertex -113.18252986969262 33.13475302944147 49.96502165847033
    vertex -101.90162098115877 41.18093812480851 49.965265965938116
  endloop
endfacet
facet normal -0.4741242197631544 0.6647136486670058 0.5773750856330542
  outer loop
    vertex -141.23859470208262 59.98815174610117 49.400369583483794
    vertex -126.18994350643737 75.50915573634768 43.88905940420962
    vertex -137.73117094268957 67.27729177117774 43.88881152080209
  endloop
endfacet
facet normal -0.4741242197631544 0.6647136486670058 0.5773750856330542
  outer loop
    vertex -126.18994350643737 75.50915573634768 43.88905940420962
    vertex -141.23859470208262 59.98815174610117 49.400369583483794
    vertex -118.15613982957808 76.45187967644108 49.400865350298844
  endloop
endfacet
facet normal -0.547474769750156 0.7675801862249112 -0.3333047167412195
  outer loop
    vertex -124.94477707511373 61.55749420372484 26.250795236152072
    vertex -97.94987907544186 85.70569463908795 37.52172670421347
    vertex -104.73851618983677 70.81130945409637 14.371657037271873
  endloop
endfacet
facet normal -0.547474769750156 0.7675801862249112 -0.3333047167412195
  outer loop
    vertex -97.94987907544186 85.70569463908795 37.52172670421347
    vertex -124.94477707511373 61.55749420372484 26.250795236152072
    vertex -118.15613982957808 76.45187967644108 49.400865350298844
  endloop
endfacet
facet normal -0.547474769750156 0.7675801862249112 -0.3333047167412195
  outer loop
    vertex -120.06711567601975 54.71963844190557 2.4917512368198276
    vertex -104.73851618983677 70.81130945409637 14.371657037271873
    vertex -61.44979362452743 96.52884261874006 2.493020695661054
  endloop
endfacet
facet normal -0.547474769750156 0.7675801862249112 -0.3333047167412195
  outer loop
    vertex -104.73851618983677 70.81130945409637 14.371657037271873
    vertex -120.06711567601975 54.71963844190557 2.4917512368198276
    vertex -124.94477707511373 61.55749420372484 26.250795236152072
  endloop
endfacet
facet normal -0.547474769750156 0.7675801862249112 -0.3333047167412195
  outer loop
    vertex -124.94477707511373 61.55749420372484 26.250795236152072
    vertex -120.06711567601975 54.71963844190557 2.4917512368198276
    vertex -161.4448534058347 50.734332965530626 61.27950974930656
  endloop
endfacet
facet normal -0.547474769750156 0.7675801862249112 -0.3333047167412195
  outer loop
    vertex -124.94477707511373 61.55749420372484 26.250795236152072
    vertex -161.4448534058347 50.734332965530626 61.27950974930656
    vertex -129.57973158329915 61.11107262973499 32.83595232718457
  endloop
endfacet
facet normal -0.547474769750156 0.7675801862249112 -0.3333047167412195
  outer loop
    vertex -129.57973158329915 61.11107262973499 32.83595232718457
    vertex -161.4448534058347 50.734332965530626 61.27950974930656
    vertex -135.40916314269097 60.54961218791804 41.118160955334204
  endloop
endfacet
facet normal -0.547474769750156 0.7675801862249112 -0.3333047167412195
  outer loop
    vertex -135.40916314269097 60.54961218791804 41.118160955334204
    vertex -161.4448534058347 50.734332965530626 61.27950974930656
    vertex -141.23859470208262 59.98815174610117 49.400369583483794
  endloop
endfacet
facet normal -0.547474769750156 0.7675801862249112 -0.3333047167412195
  outer loop
    vertex -141.23859470208262 59.98815174610117 49.400369583483794
    vertex -161.4448534058347 50.734332965530626 61.27950974930656
    vertex -118.15613982957808 76.45187967644108 49.400865350298844
  endloop
endfacet
facet normal -0.547474769750156 0.7675801862249112 -0.3333047167412195
  outer loop
    vertex -61.44979362452743 96.52884261874006 2.493020695661054
    vertex -81.65605713722852 87.2750305805267 14.372156927589188
    vertex -102.82754310195978 92.54355361306541 61.280768736593515
  endloop
endfacet
facet normal -0.547474769750156 0.7675801862249112 -0.3333047167412195
  outer loop
    vertex -81.65605713722852 87.2750305805267 14.372156927589188
    vertex -61.44979362452743 96.52884261874006 2.493020695661054
    vertex -104.73851618983677 70.81130945409637 14.371657037271873
  endloop
endfacet
facet normal -0.547474769750156 0.7675801862249112 -0.3333047167412195
  outer loop
    vertex -102.82754310195978 92.54355361306541 61.280768736593515
    vertex -81.65605713722852 87.2750305805267 14.372156927589188
    vertex -97.94987907544186 85.70569463908795 37.52172670421347
  endloop
endfacet
facet normal -0.547474769750156 0.7675801862249112 -0.3333047167412195
  outer loop
    vertex -102.82754310195978 92.54355361306541 61.280768736593515
    vertex -97.94987907544186 85.70569463908795 37.52172670421347
    vertex -118.15613982957808 76.45187967644108 49.400865350298844
  endloop
endfacet
facet normal -0.547474769750156 0.7675801862249112 -0.3333047167412195
  outer loop
    vertex -102.82754310195978 92.54355361306541 61.280768736593515
    vertex -118.15613982957808 76.45187967644108 49.400865350298844
    vertex -161.4448534058347 50.734332965530626 61.27950974930656
  endloop
endfacet
facet normal -0.8155616211613587 -0.04385737211496442 -0.5770058691207793
  outer loop
    vertex -137.73117094268957 67.27729177117774 43.88881152080209
    vertex -135.40916314269097 60.54961218791804 41.118160955334204
    vertex -141.23859470208262 59.98815174610117 49.400369583483794
  endloop
endfacet
facet normal -0.8155616211613587 -0.04385737211496442 -0.5770058691207793
  outer loop
    vertex -135.40916314269097 60.54961218791804 41.118160955334204
    vertex -137.73117094268957 67.27729177117774 43.88881152080209
    vertex -129.57973158329915 61.11107262973499 32.83595232718457
  endloop
endfacet
facet normal -0.8155616211613587 -0.04385737211496442 -0.5770058691207793
  outer loop
    vertex -129.57973158329915 61.11107262973499 32.83595232718457
    vertex -137.73117094268957 67.27729177117774 43.88881152080209
    vertex -124.94477707511373 61.55749420372484 26.250795236152072
  endloop
endfacet
facet normal -0.8155616211613587 -0.04385737211496442 -0.5770058691207793
  outer loop
    vertex -124.94477707511373 61.55749420372484 26.250795236152072
    vertex -137.73117094268957 67.27729177117774 43.88881152080209
    vertex -129.58426212920517 68.06196299998956 32.31402434713621
  endloop
endfacet
facet normal 0.3876352643504037 0.8505184469855372 0.3554676823134599
  outer loop
    vertex -72.0572358659177 90.3439503226629 47.82018451403799
    vertex -59.15761988095906 84.46488090856069 47.8199339580798
    vertex -63.859843232773464 91.23936027334013 36.73855505236261
  endloop
endfacet
facet normal 0.8089551483292864 0.11248565871905987 0.577008270802145
  outer loop
    vertex -17.533698041876054 71.89781836301188 14.371400522690557
    vertex -30.25906889010685 78.15851559359947 30.9916399461578
    vertex -33.827520677716194 70.32848449852281 37.520980756878544
  endloop
endfacet
facet normal 0.8089551483292864 0.11248565871905987 0.577008270802145
  outer loop
    vertex -30.25906889010685 78.15851559359947 30.9916399461578
    vertex -17.533698041876054 71.89781836301188 14.371400522690557
    vertex -22.279967045946083 78.57496866846577 19.723897621960106
  endloop
endfacet
facet normal -0.5474749148325342 0.7675801197818304 -0.3333046314482005
  outer loop
    vertex -126.18994350643737 75.50915573634768 43.88905940420962
    vertex -129.58426212920517 68.06196299998956 32.31402434713621
    vertex -137.73117094268957 67.27729177117774 43.88881152080209
  endloop
endfacet
facet normal -0.44577712601641795 0.6843364256706974 0.577032417131652
  outer loop
    vertex -33.827520677716194 70.32848449852281 37.520980756878544
    vertex -35.17958303090469 84.45403808256799 19.724148177918313
    vertex -43.3329300117933 83.65595719121632 14.371901634606974
  endloop
endfacet
facet normal -0.44577712601641795 0.6843364256706974 0.577032417131652
  outer loop
    vertex -35.17958303090469 84.45403808256799 19.724148177918313
    vertex -33.827520677716194 70.32848449852281 37.520980756878544
    vertex -30.25906889010685 78.15851559359947 30.9916399461578
  endloop
endfacet
facet normal 0.0971853539465675 0.21319930470461712 0.9721630848020041
  outer loop
    vertex -55.42791575256448 75.55695177970284 49.40062984681808
    vertex -72.0572358659177 90.3439503226629 47.82018451403799
    vertex -81.22714602153312 87.3150871242069 49.40112294461873
  endloop
endfacet
facet normal 0.0971853539465675 0.21319930470461712 0.9721630848020041
  outer loop
    vertex -72.0572358659177 90.3439503226629 47.82018451403799
    vertex -55.42791575256448 75.55695177970284 49.40062984681808
    vertex -59.15761988095906 84.46488090856069 47.8199339580798
  endloop
endfacet
facet normal 0.9190054921128288 0.353984595628928 -0.17356212583360994
  outer loop
    vertex -64.93332408331989 88.88442306564554 26.251553167994533
    vertex -59.15761988095906 84.46488090856069 47.8199339580798
    vertex -55.42791575256448 75.55695177970284 49.40062984681808
  endloop
endfacet
facet normal 0.9190054921128288 0.353984595628928 -0.17356212583360994
  outer loop
    vertex -59.15761988095906 84.46488090856069 47.8199339580798
    vertex -64.93332408331989 88.88442306564554 26.251553167994533
    vertex -63.859843232773464 91.23936027334013 36.73855505236261
  endloop
endfacet
facet normal 0.30704177823881235 0.7568470499004016 -0.5769817063590551
  outer loop
    vertex -129.58426212920517 68.06196299998956 32.31402434713621
    vertex -118.15613982957808 76.45187967644108 49.400865350298844
    vertex -124.94477707511373 61.55749420372484 26.250795236152072
  endloop
endfacet
facet normal 0.30704177823881235 0.7568470499004016 -0.5769817063590551
  outer loop
    vertex -118.15613982957808 76.45187967644108 49.400865350298844
    vertex -129.58426212920517 68.06196299998956 32.31402434713621
    vertex -126.18994350643737 75.50915573634768 43.88905940420962
  endloop
endfacet
facet normal 0.32899068243596213 0.7218839765096887 -0.6088092109428694
  outer loop
    vertex -43.3329300117933 83.65595719121632 14.371901634606974
    vertex -22.279967045946083 78.57496866846577 19.723897621960106
    vertex -17.533698041876054 71.89781836301188 14.371400522690557
  endloop
endfacet
facet normal 0.32899068243596213 0.7218839765096887 -0.6088092109428694
  outer loop
    vertex -22.279967045946083 78.57496866846577 19.723897621960106
    vertex -43.3329300117933 83.65595719121632 14.371901634606974
    vertex -35.17958303090469 84.45403808256799 19.724148177918313
  endloop
endfacet
facet normal 0.39099822790293415 0.8578986923360317 0.33336199463179983
  outer loop
    vertex -81.22714602153312 87.3150871242069 49.40112294461873
    vertex -55.42791575256448 75.55695177970284 49.40062984681808
    vertex -64.93332408331989 88.88442306564554 26.251553167994533
  endloop
endfacet
facet normal 0.3909984022820018 0.8578986501268295 0.33336189872792293
  outer loop
    vertex -33.827520677716194 70.32848449852281 37.520980756878544
    vertex -17.533698041876054 71.89781836301188 14.371400522690557
    vertex -43.3329300117933 83.65595719121632 14.371901634606974
  endloop
endfacet
facet normal 0.33861161106711507 0.7429922643022285 -0.5773254472458149
  outer loop
    vertex -52.5606106711846 45.93201265147409 13.804936015648675
    vertex -32.665654819955485 56.17181909586711 38.65185744872071
    vertex -39.951955527662385 40.185551530585194 13.804695027831283
  endloop
endfacet
facet normal 0.33861161106711507 0.7429922643022285 -0.5773254472458149
  outer loop
    vertex -32.665654819955485 56.17181909586711 38.65185744872071
    vertex -52.5606106711846 45.93201265147409 13.804936015648675
    vertex -45.274309963472156 61.91828021675914 38.652098436534246
  endloop
endfacet
facet normal 0.8128681204961309 0.07833937208029548 0.5771554049501338
  outer loop
    vertex -44.59745897148168 46.69898083992311 2.4912247135038283
    vertex -55.4765438257914 76.22276605484684 13.806001798058837
    vertex -52.5606106711846 45.93201265147409 13.804936015648675
  endloop
endfacet
facet normal 0.8128681204961309 0.07833937208029548 0.5771554049501338
  outer loop
    vertex -55.4765438257914 76.22276605484684 13.806001798058837
    vertex -44.59745897148168 46.69898083992311 2.4912247135038283
    vertex -47.5133969358176 76.98973523103186 2.480845582702654
  endloop
endfacet
facet normal -0.4741157884895121 0.6648889326466694 0.5771801506886226
  outer loop
    vertex -44.59745897148168 46.69898083992311 2.4912247135038283
    vertex -15.177360141775512 57.85620042132192 13.805231564275493
    vertex -19.822868395321134 64.36963071839689 2.480316336729545
  endloop
endfacet
facet normal -0.4741157884895121 0.6648889326466694 0.5771801506886226
  outer loop
    vertex -15.177360141775512 57.85620042132192 13.805231564275493
    vertex -44.59745897148168 46.69898083992311 2.4912247135038283
    vertex -39.951955527662385 40.185551530585194 13.804695027831283
  endloop
endfacet
facet normal 0.3909982527541529 0.857898746871818 0.33336182513743834
  outer loop
    vertex -52.5606106711846 45.93201265147409 13.804936015648675
    vertex -39.951955527662385 40.185551530585194 13.804695027831283
    vertex -44.59745897148168 46.69898083992311 2.4912247135038283
  endloop
endfacet
facet normal -3.3807432281010224e-06 3.485962777145785e-05 -0.9999999993866886
  outer loop
    vertex -61.44979362452743 96.52884261874006 2.493020695661054
    vertex -96.17755164397373 57.01936241637943 2.49175455647324
    vertex -120.06711567601975 54.71963844190557 2.4917512368198276
  endloop
endfacet
facet normal -3.3807432281010224e-06 3.485962777145785e-05 -0.9999999993866886
  outer loop
    vertex -96.17755164397373 57.01936241637943 2.49175455647324
    vertex -61.44979362452743 96.52884261874006 2.493020695661054
    vertex -71.40295625808528 74.69001130711464 2.4922910929107593
  endloop
endfacet
facet normal -3.3807432281010224e-06 3.485962777145785e-05 -0.9999999993866886
  outer loop
    vertex -71.40295625808528 74.69001130711464 2.4922910929107593
    vertex -61.44979362452743 96.52884261874006 2.493020695661054
    vertex -68.48702310347907 44.39925790374159 2.4912253105002975
  endloop
endfacet
facet normal -3.3807432281010224e-06 3.485962777145785e-05 -0.9999999993866886
  outer loop
    vertex -96.17755164397373 57.01936241637943 2.49175455647324
    vertex -54.55062170499044 24.860150566590193 2.490499027403722
    vertex -120.06711567601975 54.71963844190557 2.4917512368198276
  endloop
endfacet
facet normal -3.3807432281010224e-06 3.485962777145785e-05 -0.9999999993866886
  outer loop
    vertex -54.55062170499044 24.860150566590193 2.490499027403722
    vertex -96.17755164397373 57.01936241637943 2.49175455647324
    vertex -68.48702310347907 44.39925790374159 2.4912253105002975
  endloop
endfacet
facet normal -3.3807432281010224e-06 3.485962777145785e-05 -0.9999999993866886
  outer loop
    vertex -54.55062170499044 24.860150566590193 2.490499027403722
    vertex -68.48702310347907 44.39925790374159 2.4912253105002975
    vertex -61.44979362452743 96.52884261874006 2.493020695661054
  endloop
endfacet
facet normal -3.3807432281010224e-06 3.485962777145785e-05 -0.9999999993866886
  outer loop
    vertex -54.55062170499044 24.860150566590193 2.490499027403722
    vertex -61.44979362452743 96.52884261874006 2.493020695661054
    vertex -47.5133969358176 76.98973523103186 2.480845582702654
  endloop
endfacet
facet normal -3.3807432281010224e-06 3.485962777145785e-05 -0.9999999993866886
  outer loop
    vertex -47.5133969358176 76.98973523103186 2.480845582702654
    vertex -61.44979362452743 96.52884261874006 2.493020695661054
    vertex 4.066697750574269 66.66934904840582 2.491748134734169
  endloop
endfacet
facet normal -3.3807432281010224e-06 3.485962777145785e-05 -0.9999999993866886
  outer loop
    vertex -47.5133969358176 76.98973523103186 2.480845582702654
    vertex 4.066697750574269 66.66934904840582 2.491748134734169
    vertex -19.822868395321134 64.36963071839689 2.480316336729545
  endloop
endfacet
facet normal -3.3807432281010224e-06 3.485962777145785e-05 -0.9999999993866886
  outer loop
    vertex -54.55062170499044 24.860150566590193 2.490499027403722
    vertex -44.59745897148168 46.69898083992311 2.4912247135038283
    vertex 4.066697750574269 66.66934904840582 2.491748134734169
  endloop
endfacet
facet normal -3.3807432281010224e-06 3.485962777145785e-05 -0.9999999993866886
  outer loop
    vertex -44.59745897148168 46.69898083992311 2.4912247135038283
    vertex -54.55062170499044 24.860150566590193 2.490499027403722
    vertex -47.5133969358176 76.98973523103186 2.480845582702654
  endloop
endfacet
facet normal -3.3807432281010224e-06 3.485962777145785e-05 -0.9999999993866886
  outer loop
    vertex 4.066697750574269 66.66934904840582 2.491748134734169
    vertex -44.59745897148168 46.69898083992311 2.4912247135038283
    vertex -19.822868395321134 64.36963071839689 2.480316336729545
  endloop
endfacet
facet normal 0.5474746493134116 -0.7675802413810299 0.333304787545269
  outer loop
    vertex 4.066697750574269 66.66934904840582 2.491748134734169
    vertex -15.177360141775512 57.85620042132192 13.805231564275493
    vertex -39.951955527662385 40.185551530585194 13.804695027831283
  endloop
endfacet
facet normal 0.5474746493134116 -0.7675802413810299 0.333304787545269
  outer loop
    vertex -15.177360141775512 57.85620042132192 13.805231564275493
    vertex 4.066697750574269 66.66934904840582 2.491748134734169
    vertex -37.3110491309303 62.68406573774981 61.27951652717695
  endloop
endfacet
facet normal 0.5474746493134116 -0.7675802413810299 0.333304787545269
  outer loop
    vertex -15.177360141775512 57.85620042132192 13.805231564275493
    vertex -37.3110491309303 62.68406573774981 61.27951652717695
    vertex -32.665654819955485 56.17181909586711 38.65185744872071
  endloop
endfacet
facet normal 0.5474746493134116 -0.7675802413810299 0.333304787545269
  outer loop
    vertex -32.665654819955485 56.17181909586711 38.65185744872071
    vertex -37.3110491309303 62.68406573774981 61.27951652717695
    vertex -51.909715308248046 47.35866477375825 49.96532052674647
  endloop
endfacet
facet normal 0.5474746493134116 -0.7675802413810299 0.333304787545269
  outer loop
    vertex -51.909715308248046 47.35866477375825 49.96532052674647
    vertex -37.3110491309303 62.68406573774981 61.27951652717695
    vertex -95.92837118242294 20.874861560915143 61.27824706833606
  endloop
endfacet
facet normal 0.5474746493134116 -0.7675802413810299 0.333304787545269
  outer loop
    vertex -54.55062170499044 24.860150566590193 2.490499027403722
    vertex -59.19601601596056 31.372397208473103 25.118158105860868
    vertex -95.92837118242294 20.874861560915143 61.27824706833606
  endloop
endfacet
facet normal 0.5474746493134116 -0.7675802413810299 0.333304787545269
  outer loop
    vertex -59.19601601596056 31.372397208473103 25.118158105860868
    vertex -54.55062170499044 24.860150566590193 2.490499027403722
    vertex -39.951955527662385 40.185551530585194 13.804695027831283
  endloop
endfacet
facet normal 0.5474746493134116 -0.7675802413810299 0.333304787545269
  outer loop
    vertex -39.951955527662385 40.185551530585194 13.804695027831283
    vertex -54.55062170499044 24.860150566590193 2.490499027403722
    vertex 4.066697750574269 66.66934904840582 2.491748134734169
  endloop
endfacet
facet normal 0.5474746493134116 -0.7675802413810299 0.333304787545269
  outer loop
    vertex -95.92837118242294 20.874861560915143 61.27824706833606
    vertex -59.19601601596056 31.372397208473103 25.118158105860868
    vertex -76.68431069413622 29.68801588302316 49.964783990309215
  endloop
endfacet
facet normal 0.5474746493134116 -0.7675802413810299 0.333304787545269
  outer loop
    vertex -95.92837118242294 20.874861560915143 61.27824706833606
    vertex -76.68431069413622 29.68801588302316 49.964783990309215
    vertex -51.909715308248046 47.35866477375825 49.96532052674647
  endloop
endfacet
facet normal 0.5474746493134116 -0.7675802413810299 0.333304787545269
  outer loop
    vertex -32.665654819955485 56.17181909586711 38.65185744872071
    vertex -59.19601601596056 31.372397208473103 25.118158105860868
    vertex -39.951955527662385 40.185551530585194 13.804695027831283
  endloop
endfacet
facet normal 0.5474746493134116 -0.7675802413810299 0.333304787545269
  outer loop
    vertex -59.19601601596056 31.372397208473103 25.118158105860868
    vertex -32.665654819955485 56.17181909586711 38.65185744872071
    vertex -51.909715308248046 47.35866477375825 49.96532052674647
  endloop
endfacet
facet normal 0.474124145758426 -0.6647137953881224 -0.5773749774882526
  outer loop
    vertex -53.21284235200321 61.153680337982486 49.98329467174489
    vertex -71.25595256855019 48.29949973317401 49.96541540398772
    vertex -68.07494189185893 81.99173357819586 13.788754691463328
  endloop
endfacet
facet normal 0.474124145758426 -0.6647137953881224 -0.5773749774882526
  outer loop
    vertex -68.07494189185893 81.99173357819586 13.788754691463328
    vertex -89.30322291509138 35.41197060145937 49.982513072533706
    vertex -104.16532245494692 56.25002384167288 13.787973092251947
  endloop
endfacet
facet normal 0.474124145758426 -0.6647137953881224 -0.5773749774882526
  outer loop
    vertex -89.30322291509138 35.41197060145937 49.982513072533706
    vertex -68.07494189185893 81.99173357819586 13.788754691463328
    vertex -71.25595256855019 48.29949973317401 49.96541540398772
  endloop
endfacet
facet normal -0.909951305153169 0.4147151093794024 1.7391797441730206e-05
  outer loop
    vertex -51.909715308248046 47.35866477375825 49.96532052674647
    vertex -52.5606106711846 45.93201265147409 13.804936015648675
    vertex -59.19601601596056 31.372397208473103 25.118158105860868
  endloop
endfacet
facet normal -0.909951305153169 0.4147151093794024 1.7391797441730206e-05
  outer loop
    vertex -52.5606106711846 45.93201265147409 13.804936015648675
    vertex -51.909715308248046 47.35866477375825 49.96532052674647
    vertex -45.274309963472156 61.91828021675914 38.652098436534246
  endloop
endfacet
facet normal -0.39099822790292804 -0.8578986923360323 -0.3333619946318052
  outer loop
    vertex -54.55062170499044 24.860150566590193 2.490499027403722
    vertex -75.12242844825447 29.83964246074086 13.80444740071271
    vertex -120.06711567601975 54.71963844190557 2.4917512368198276
  endloop
endfacet
facet normal -0.39099822790292804 -0.8578986923360323 -0.3333619946318052
  outer loop
    vertex -75.12242844825447 29.83964246074086 13.80444740071271
    vertex -54.55062170499044 24.860150566590193 2.490499027403722
    vertex -95.92837118242294 20.874861560915143 61.27824706833606
  endloop
endfacet
facet normal -0.39099822790292804 -0.8578986923360323 -0.3333619946318052
  outer loop
    vertex -75.12242844825447 29.83964246074086 13.80444740071271
    vertex -95.92837118242294 20.874861560915143 61.27824706833606
    vertex -92.61072312643037 28.155261135290914 38.65107328516088
  endloop
endfacet
facet normal -0.39099822790292804 -0.8578986923360323 -0.3333619946318052
  outer loop
    vertex -120.06711567601975 54.71963844190557 2.4917512368198276
    vertex -102.81295698874915 42.45974697337873 13.80497664668547
    vertex -95.92837118242294 20.874861560915143 61.27824706833606
  endloop
endfacet
facet normal -0.39099822790292804 -0.8578986923360323 -0.3333619946318052
  outer loop
    vertex -102.81295698874915 42.45974697337873 13.80497664668547
    vertex -120.06711567601975 54.71963844190557 2.4917512368198276
    vertex -75.12242844825447 29.83964246074086 13.80444740071271
  endloop
endfacet
facet normal -0.39099822790292804 -0.8578986923360323 -0.3333619946318052
  outer loop
    vertex -95.92837118242294 20.874861560915143 61.27824706833606
    vertex -102.81295698874915 42.45974697337873 13.80497664668547
    vertex -92.61072312643037 28.155261135290914 38.65107328516088
  endloop
endfacet
facet normal 0.9385896038200943 0.09163412966038162 -0.3326450689281642
  outer loop
    vertex -102.81295698874915 42.45974697337873 13.80497664668547
    vertex -89.30322291509138 35.41197060145937 49.982513072533706
    vertex -92.61072312643037 28.155261135290914 38.65107328516088
  endloop
endfacet
facet normal 0.9385896038200943 0.09163412966038162 -0.3326450689281642
  outer loop
    vertex -89.30322291509138 35.41197060145937 49.982513072533706
    vertex -102.81295698874915 42.45974697337873 13.80497664668547
    vertex -104.16532245494692 56.25002384167288 13.787973092251947
  endloop
endfacet
facet normal -0.8142032518795947 -0.0761626564316054 -0.575562606841319
  outer loop
    vertex -45.274309963472156 61.91828021675914 38.652098436534246
    vertex -51.909715308248046 47.35866477375825 49.96532052674647
    vertex -53.21284235200321 61.153680337982486 49.98329467174489
  endloop
endfacet
facet normal -0.09582183221579581 0.9953985007243007 3.50231702435816e-05
  outer loop
    vertex -92.61072312643037 28.155261135290914 38.65107328516088
    vertex -59.19601601596056 31.372397208473103 25.118158105860868
    vertex -75.12242844825447 29.83964246074086 13.80444740071271
  endloop
endfacet
facet normal -0.09582183221579581 0.9953985007243007 3.50231702435816e-05
  outer loop
    vertex -59.19601601596056 31.372397208473103 25.118158105860868
    vertex -92.61072312643037 28.155261135290914 38.65107328516088
    vertex -76.68431069413622 29.68801588302316 49.964783990309215
  endloop
endfacet
facet normal 0.3371441879324754 0.7450437464690647 -0.5755376724339528
  outer loop
    vertex -89.30322291509138 35.41197060145937 49.982513072533706
    vertex -76.68431069413622 29.68801588302316 49.964783990309215
    vertex -92.61072312643037 28.155261135290914 38.65107328516088
  endloop
endfacet
facet normal -0.0005673854063232578 0.0008256905045552828 -0.9999994981543698
  outer loop
    vertex -71.25595256855019 48.29949973317401 49.96541540398772
    vertex -76.68431069413622 29.68801588302316 49.964783990309215
    vertex -89.30322291509138 35.41197060145937 49.982513072533706
  endloop
endfacet
facet normal -0.0005673854063232578 0.0008256905045552828 -0.9999994981543698
  outer loop
    vertex -76.68431069413622 29.68801588302316 49.964783990309215
    vertex -71.25595256855019 48.29949973317401 49.96541540398772
    vertex -51.909715308248046 47.35866477375825 49.96532052674647
  endloop
endfacet
facet normal -0.0005673854063232578 0.0008256905045552828 -0.9999994981543698
  outer loop
    vertex -51.909715308248046 47.35866477375825 49.96532052674647
    vertex -71.25595256855019 48.29949973317401 49.96541540398772
    vertex -53.21284235200321 61.153680337982486 49.98329467174489
  endloop
endfacet
facet normal -0.47412414575842937 0.664713795388121 0.5773749774882513
  outer loop
    vertex -75.12242844825447 29.83964246074086 13.80444740071271
    vertex -52.5606106711846 45.93201265147409 13.804936015648675
    vertex -68.48702310347907 44.39925790374159 2.4912253105002975
  endloop
endfacet
facet normal -0.47412414575842937 0.664713795388121 0.5773749774882513
  outer loop
    vertex -52.5606106711846 45.93201265147409 13.804936015648675
    vertex -75.12242844825447 29.83964246074086 13.80444740071271
    vertex -59.19601601596056 31.372397208473103 25.118158105860868
  endloop
endfacet
facet normal 0.8112716420759194 0.0802727223218225 0.5791326383605789
  outer loop
    vertex -96.17755164397373 57.01936241637943 2.49175455647324
    vertex -104.16532245494692 56.25002384167288 13.787973092251947
    vertex -102.81295698874915 42.45974697337873 13.80497664668547
  endloop
endfacet
facet normal 0.23943850797305444 0.5253321551549869 0.8165141319412997
  outer loop
    vertex -75.12242844825447 29.83964246074086 13.80444740071271
    vertex -96.17755164397373 57.01936241637943 2.49175455647324
    vertex -102.81295698874915 42.45974697337873 13.80497664668547
  endloop
endfacet
facet normal 0.23943850797305444 0.5253321551549869 0.8165141319412997
  outer loop
    vertex -96.17755164397373 57.01936241637943 2.49175455647324
    vertex -75.12242844825447 29.83964246074086 13.80444740071271
    vertex -68.48702310347907 44.39925790374159 2.4912253105002975
  endloop
endfacet
facet normal -0.5746909649643289 -0.05535123618991877 0.8164965005685062
  outer loop
    vertex -68.48702310347907 44.39925790374159 2.4912253105002975
    vertex -55.4765438257914 76.22276605484684 13.806001798058837
    vertex -71.40295625808528 74.69001130711464 2.4922910929107593
  endloop
endfacet
facet normal -0.5746909649643289 -0.05535123618991877 0.8164965005685062
  outer loop
    vertex -55.4765438257914 76.22276605484684 13.806001798058837
    vertex -68.48702310347907 44.39925790374159 2.4912253105002975
    vertex -52.5606106711846 45.93201265147409 13.804936015648675
  endloop
endfacet
facet normal 0.5471916590200512 -0.7671835710481921 0.33467993159528947
  outer loop
    vertex -71.40295625808528 74.69001130711464 2.4922910929107593
    vertex -104.16532245494692 56.25002384167288 13.787973092251947
    vertex -96.17755164397373 57.01936241637943 2.49175455647324
  endloop
endfacet
facet normal 0.5471916590200512 -0.7671835710481921 0.33467993159528947
  outer loop
    vertex -104.16532245494692 56.25002384167288 13.787973092251947
    vertex -71.40295625808528 74.69001130711464 2.4922910929107593
    vertex -68.07494189185893 81.99173357819586 13.788754691463328
  endloop
endfacet
facet normal -0.340075797736143 -0.7409336805788823 0.5791077039532085
  outer loop
    vertex -55.4765438257914 76.22276605484684 13.806001798058837
    vertex -68.07494189185893 81.99173357819586 13.788754691463328
    vertex -71.40295625808528 74.69001130711464 2.4922910929107593
  endloop
endfacet
facet normal -0.39100973230302477 -0.8579239447729521 -0.3332835042865665
  outer loop
    vertex -15.177360141775512 57.85620042132192 13.805231564275493
    vertex -47.5133969358176 76.98973523103186 2.480845582702654
    vertex -19.822868395321134 64.36963071839689 2.480316336729545
  endloop
endfacet
facet normal -0.39100973230302477 -0.8579239447729521 -0.3332835042865665
  outer loop
    vertex -47.5133969358176 76.98973523103186 2.480845582702654
    vertex -15.177360141775512 57.85620042132192 13.805231564275493
    vertex -55.4765438257914 76.22276605484684 13.806001798058837
  endloop
endfacet
facet normal -0.39100973230302477 -0.8579239447729521 -0.3332835042865665
  outer loop
    vertex -55.4765438257914 76.22276605484684 13.806001798058837
    vertex -15.177360141775512 57.85620042132192 13.805231564275493
    vertex -32.665654819955485 56.17181909586711 38.65185744872071
  endloop
endfacet
facet normal -0.39100973230302477 -0.8579239447729521 -0.3332835042865665
  outer loop
    vertex -55.4765438257914 76.22276605484684 13.806001798058837
    vertex -32.665654819955485 56.17181909586711 38.65185744872071
    vertex -45.274309963472156 61.91828021675914 38.652098436534246
  endloop
endfacet
facet normal -0.3922483254484047 -0.8575950872967452 -0.3326738905105275
  outer loop
    vertex -55.4765438257914 76.22276605484684 13.806001798058837
    vertex -53.21284235200321 61.153680337982486 49.98329467174489
    vertex -68.07494189185893 81.99173357819586 13.788754691463328
  endloop
endfacet
facet normal -0.3922483254484047 -0.8575950872967452 -0.3326738905105275
  outer loop
    vertex -53.21284235200321 61.153680337982486 49.98329467174489
    vertex -55.4765438257914 76.22276605484684 13.806001798058837
    vertex -45.274309963472156 61.91828021675914 38.652098436534246
  endloop
endfacet
endsolid theuntitled
